HIERARCHY
ROOT root
{
	OFFSET	0	13.1	24.9
	CHANNELS 6  Xposition Yposition Zposition Xrotation Yrotation Zrotation
	JOINT spine_1
	{
		OFFSET	0	9.99999	0
		CHANNELS 3  Xrotation Yrotation Zrotation
		JOINT spine_2
		{
			OFFSET	0	112	-10
			CHANNELS 3  Xrotation Yrotation Zrotation
			JOINT spine_3
			{
				OFFSET	0	206.5	19.3
				CHANNELS 3  Xrotation Yrotation Zrotation
				JOINT spine_4
				{
					OFFSET	0	110.4	14.6
					CHANNELS 3  Xrotation Yrotation Zrotation
					JOINT neck_1
					{
						OFFSET	0	71.8	-50.3
						CHANNELS 3  Xrotation Yrotation Zrotation
						JOINT neck_2
						{
							OFFSET	0	86.2	-25.8
							CHANNELS 3  Xrotation Yrotation Zrotation
							JOINT head_ee
							{
								OFFSET	0	179.8	-8.7
								CHANNELS 3  Xrotation Yrotation Zrotation
								End Site
								{
									OFFSET	1	0	0
								}
							}
						}
					}
					JOINT left_clavicle
					{
						OFFSET	-43.2	22.4	-70.8
						CHANNELS 3  Xrotation Yrotation Zrotation
						JOINT left_shoulder
						{
							OFFSET	-93.9	-5.79999	48.7
							CHANNELS 3  Xrotation Yrotation Zrotation
							JOINT left_elbow
							{
								OFFSET	-291.4	-30.8	15.2
								CHANNELS 3  Xrotation Yrotation Zrotation
								JOINT left_lowarm_twist
								{
									OFFSET	-110.7	-3.89999	13.6
									CHANNELS 3  Xrotation Yrotation Zrotation
									JOINT left_hand
									{
										OFFSET	-110.7	-3.89999	13.6
										CHANNELS 3  Xrotation Yrotation Zrotation
										JOINT left_ee
										{
											OFFSET	-80.8	-5.10001	12.1
											CHANNELS 3  Xrotation Yrotation Zrotation
											End Site
											{
												OFFSET	1	0	0
											}
										}
									}
								}
							}
						}
					}
					JOINT right_clavicle
					{
						OFFSET	43.2	22.4	-70.8
						CHANNELS 3  Xrotation Yrotation Zrotation
						JOINT right_shoulder
						{
							OFFSET	93.9	-5.79999	48.7
							CHANNELS 3  Xrotation Yrotation Zrotation
							JOINT right_elbow
							{
								OFFSET	291.4	-30.8	15.2
								CHANNELS 3  Xrotation Yrotation Zrotation
								JOINT right_lowarm_twist
								{
									OFFSET	110.7	-3.89999	13.6
									CHANNELS 3  Xrotation Yrotation Zrotation
									JOINT right_hand
									{
										OFFSET	110.7	-3.89999	13.6
										CHANNELS 3  Xrotation Yrotation Zrotation
										JOINT right_ee
										{
											OFFSET	80.8	-5.10001	12.1
											CHANNELS 3  Xrotation Yrotation Zrotation
											End Site
											{
												OFFSET	1	0	0
											}
										}
									}
								}
							}
						}
					}
				}
			}
		}
	}
	JOINT left_hip
	{
		OFFSET	-82.8	-127.5	0.300001
		CHANNELS 3  Xrotation Yrotation Zrotation
		JOINT left_knee
		{
			OFFSET	-28.2	-396.7	2.2
			CHANNELS 3  Xrotation Yrotation Zrotation
			JOINT left_ankle
			{
				OFFSET	-11.7	-411.3	35.4
				CHANNELS 3  Xrotation Yrotation Zrotation
				JOINT left_toes
				{
					OFFSET	0	-60	-88.6
					CHANNELS 3  Xrotation Yrotation Zrotation
					JOINT left_foot_ee
					{
						OFFSET	-22.5	-16.5	-42.2
						CHANNELS 3  Xrotation Yrotation Zrotation
						End Site
						{
							OFFSET	1	0	0
						}
					}
				}
			}
		}
	}
	JOINT right_hip
	{
		OFFSET	82.8	-127.5	0.300001
		CHANNELS 3  Xrotation Yrotation Zrotation
		JOINT right_knee
		{
			OFFSET	28.2	-396.7	2.2
			CHANNELS 3  Xrotation Yrotation Zrotation
			JOINT right_ankle
			{
				OFFSET	11.7	-411.3	35.4
				CHANNELS 3  Xrotation Yrotation Zrotation
				JOINT right_toes
				{
					OFFSET	0	-60	-88.6
					CHANNELS 3  Xrotation Yrotation Zrotation
					JOINT right_foot_ee
					{
						OFFSET	22.5	-16.5	-42.2
						CHANNELS 3  Xrotation Yrotation Zrotation
						End Site
						{
							OFFSET	1	0	0
						}
					}
				}
			}
		}
	}
}
MOTION
Frames: 9
Frame Time: 0.02
1203.4451899 739.95 -1843.38159719 -8.36035353987 29.7020856858 2.65169842619 1.84203 0.257719 1.29553 1.84294 0.174766 1.30931 1.84698 -0.0618233 1.31947 1.84458 0.14732 1.31268 -1.2657 14.404 2.64227 -0.92761 23.8375 4.49739 -0.0 0.0 -0.0 -1.68586 13.4936 -1.17598 -16.349 -29.3866 68.6239 0.872815 -23.3818 0.18061 -1.13213 -0.0412632 0.138687 0.344142 -4.62247 0.360453 -0.0 0.0 -0.0 11.0377 12.1503 -22.0959 -6.18002 24.6518 -60.4152 0.780574 21.1401 -0.14566 35.9519 0.155623 4.51553 -0.89137 -26.0909 -5.30657 0.0 0.0 0.0 28.8364 3.8738 -9.81393 -60.0046 -2.20049 8.52596 33.0545 23.8687 -4.42236 -18.0955 0.0 0.0 -0.0 0.0 -0.0 22.1945 17.2107 -5.38343 -22.7861 -0.252153 -3.46463 31.5704 -20.0698 4.1788 -9.26656 0.0 0.0 0.0 0.0 0.0 
1160.94973464 737.984 -1866.78837612 -10.5173779866 33.88324201 4.53143748683 2.4184 0.267306 1.2577 2.41926 0.18674 1.27216 2.42331 -0.0304745 1.28543 2.42104 0.1729 1.27411 -0.981948 14.6375 3.82662 -0.641112 23.2501 5.73544 -0.0 0.0 -0.0 -2.10782 12.7046 -2.00373 -19.3262 -29.6277 69.7307 0.712701 -19.4457 0.122118 -0.225871 -0.00801297 0.0277332 0.172266 -1.57751 0.488495 -0.0 0.0 -0.0 11.566 14.0607 -23.2398 -4.04594 25.5591 -57.6522 0.835389 22.4809 -0.166027 36.5005 0.179867 4.58134 -0.419352 -24.7352 -7.42879 0.0 0.0 0.0 35.9199 4.30106 -11.0827 -60.1902 -2.22056 8.54637 35.7449 20.9541 -4.63694 -19.2576 0.0 0.0 -0.0 0.0 -0.0 19.1011 18.2645 -5.24597 -19.9155 -0.296635 -3.02643 35.7846 -22.1086 4.66776 -8.295 0.0 0.0 0.0 0.0 0.0 
1156.62824537 737.984 -1864.42763462 -10.5963335686 34.506749178 4.67192293493 2.4184 0.267306 1.2577 2.41926 0.18674 1.27216 2.42331 -0.0304745 1.28543 2.42104 0.1729 1.27411 -0.981948 14.6375 3.82662 -0.641112 23.2501 5.73544 -0.0 0.0 -0.0 -2.10782 12.7046 -2.00373 -19.3262 -29.6277 69.7307 0.712701 -19.4457 0.122118 -0.225871 -0.00801297 0.0277332 0.172266 -1.57751 0.488495 -0.0 0.0 -0.0 11.566 14.0607 -23.2398 -4.04594 25.5591 -57.6522 0.835389 22.4809 -0.166027 36.5005 0.179867 4.58134 -0.419352 -24.7352 -7.42879 0.0 0.0 0.0 35.9199 4.30106 -11.0827 -60.1902 -2.22056 8.54637 35.7449 20.9541 -4.63694 -19.2576 0.0 0.0 -0.0 0.0 -0.0 19.1011 18.2645 -5.24597 -19.9155 -0.296635 -3.02643 35.7846 -22.1086 4.66776 -8.295 0.0 0.0 0.0 0.0 0.0 
1125.68589348 735.544 -1866.92119317 -10.5321551595 36.1375433544 5.62788176631 2.67478 0.267901 0.950753 2.67526 0.206862 0.965872 2.67867 0.0454174 0.986729 2.67737 0.200675 0.967176 0.342454 14.1445 2.94385 0.728146 22.7904 4.544 -0.0 0.0 -0.0 -2.10341 12.4478 -2.03954 -20.152 -28.9175 70.5946 0.593022 -16.3711 0.0853039 0.130796 0.00459031 -0.0160735 0.0169929 0.522927 0.333557 -0.0 0.0 -0.0 11.9138 12.268 -24.0679 -2.38154 25.7672 -57.1045 0.865959 23.2177 -0.177898 36.1381 0.163777 4.53788 -0.321383 -23.2266 -7.40895 0.0 0.0 0.0 41.1642 3.60798 -11.9883 -59.43 -2.13875 8.46235 36.3339 20.2118 -4.68018 -20.216 0.0 0.0 -0.0 0.0 -0.0 17.2937 20.585 -6.26239 -19.499 -0.301263 -2.96269 38.1 -24.3997 4.96334 -8.17055 0.0 0.0 0.0 0.0 0.0 
1100.86224132 733.501 -1872.58964836 -11.5107531182 36.4528804272 6.46793596251 2.84013 0.189634 0.805424 2.84048 0.138 0.815858 2.84236 0.00448559 0.827433 2.84143 0.135103 0.816342 -0.598439 14.1781 3.41152 -0.259628 22.671 5.18879 -0.0 0.0 -0.0 -2.34384 12.8687 -2.36899 -20.9451 -28.6137 72.188 0.547094 -15.1639 0.072823 0.580231 0.0200825 -0.071383 0.063117 1.5112 1.05532 -0.0 0.0 -0.0 12.0112 14.2247 -24.2477 -2.07441 25.7862 -55.4562 0.956015 25.341 -0.214935 36.6365 0.185975 4.59762 -0.215425 -22.6302 -7.79679 0.0 0.0 0.0 42.2689 -2.03712 -8.56689 -59.5896 -2.15583 8.48008 34.7119 19.8985 -4.50893 -20.7764 0.0 0.0 -0.0 0.0 -0.0 16.1782 19.5783 -5.33112 -18.7719 -0.308231 -2.85134 40.6494 -22.7858 5.16133 -6.94998 0.0 0.0 0.0 0.0 0.0 
1072.80676942 733.555 -1876.16559362 -11.3034898796 35.7168214948 5.97774229417 3.20343 0.321271 0.798073 3.20374 0.269838 0.816897 3.2075 0.139854 0.848864 3.2066 0.272157 0.816127 -0.266006 14.0122 2.83136 0.089952 22.7725 4.50108 -0.0 0.0 -0.0 -2.53833 13.0378 -2.66276 -22.0106 -28.195 72.7702 0.46263 -12.908 0.0523341 0.39861 0.0138739 -0.0490176 -0.0902561 4.72093 1.38212 -0.0 0.0 -0.0 12.4048 14.9453 -25.1277 -1.40559 25.9331 -55.2741 1.05949 27.6916 -0.261142 36.7421 0.190745 4.61025 0.213429 -21.9861 -10.0817 0.0 0.0 0.0 46.5486 -1.55558 -10.4797 -53.4575 -1.53644 7.76641 33.9935 21.3161 -4.4635 -25.4488 0.0 0.0 -0.0 0.0 -0.0 14.0302 21.7625 -4.2878 -18.4041 -0.311217 -2.795 42.009 -22.0875 5.26543 -6.83997 0.0 0.0 0.0 0.0 0.0 
1050.68642994 728.871 -1875.64216624 -13.0638931497 36.3352125675 7.98530332534 3.47824 0.199668 0.568345 3.4784 0.163098 0.579898 3.47999 0.0740053 0.597834 3.47953 0.167492 0.578645 -0.251727 13.1903 1.37387 0.0993322 22.4748 2.8526 -0.0 0.0 -0.0 -2.03148 12.9743 -1.83151 -22.0389 -27.9271 74.091 0.346121 -9.72943 0.0294584 0.735525 0.0253343 -0.0905217 0.0758277 7.28857 3.52962 -0.0 0.0 -0.0 12.5023 15.2786 -25.3412 0.284429 24.5122 -54.0126 1.16481 29.9844 -0.311949 37.5532 0.228153 4.70697 0.928126 -16.5723 -12.5316 0.0 0.0 0.0 48.929 -3.26483 -10.9786 -48.7063 -1.11138 7.17095 37.569 25.4004 -4.94064 -26.8662 0.0 0.0 -0.0 0.0 -0.0 13.4744 23.2031 -3.95506 -16.4013 -0.321128 -2.48788 40.8715 -21.3167 5.14135 -8.74208 0.0 0.0 0.0 0.0 0.0 
1037.97464188 728.871 -1865.09961023 -13.3843144413 38.1293709656 8.51481603174 3.47824 0.199668 0.568345 3.4784 0.163098 0.579898 3.47999 0.0740053 0.597834 3.47953 0.167492 0.578645 -0.251727 13.1903 1.37387 0.0993322 22.4748 2.8526 -0.0 0.0 -0.0 -2.03148 12.9743 -1.83151 -22.0389 -27.9271 74.091 0.346121 -9.72943 0.0294584 0.735525 0.0253343 -0.0905217 0.0758277 7.28857 3.52962 -0.0 0.0 -0.0 12.5023 15.2786 -25.3412 0.284429 24.5122 -54.0126 1.16481 29.9844 -0.311949 37.5532 0.228153 4.70697 0.928126 -16.5723 -12.5316 0.0 0.0 0.0 48.929 -3.26483 -10.9786 -48.7063 -1.11138 7.17095 37.569 25.4004 -4.94064 -26.8662 0.0 0.0 -0.0 0.0 -0.0 13.4744 23.2031 -3.95506 -16.4013 -0.321128 -2.48788 40.8715 -21.3167 5.14135 -8.74208 0.0 0.0 0.0 0.0 0.0 
1023.76194186 727.551 -1875.44191026 -14.9252694996 36.3563750054 10.0530880463 3.67223 0.448405 0.62924 3.67236 0.407457 0.656497 3.67698 0.30652 0.709262 3.67652 0.414685 0.651955 0.489154 12.3057 1.25491 0.820194 20.8585 2.53357 -0.0 0.0 -0.0 -2.30299 13.8658 -2.12778 -23.1365 -28.122 74.0112 0.345845 -9.72182 0.0294118 0.0912124 0.00320471 -0.0112081 0.17682 7.71991 4.36224 -0.0 0.0 -0.0 12.5709 15.0922 -25.5058 1.34922 24.7884 -54.0944 1.23729 31.5035 -0.349004 39.3476 0.315765 4.91904 1.25798 -15.7616 -14.3434 0.0 0.0 0.0 45.4053 -10.2925 -10.9425 -40.3089 -0.486535 6.04146 38.0934 25.3966 -4.99342 -31.0062 0.0 0.0 -0.0 0.0 -0.0 13.6462 23.9769 -4.30933 -14.8419 -0.321409 -2.24864 40.2669 -17.8886 5.00726 -9.50474 0.0 0.0 0.0 0.0 0.0 
